<?xml version="1.0" standalone="no"?>
<!DOCTYPE svg PUBLIC "-//W3C//DTD SVG 20010904//EN"
 "http://www.w3.org/TR/2001/REC-SVG-20010904/DTD/svg10.dtd">
<svg version="1.0" xmlns="http://www.w3.org/2000/svg"
 width="700.000000pt" height="700.000000pt" viewBox="0 0 700.000000 700.000000"
 preserveAspectRatio="xMidYMid meet">
<metadata>
Created by potrace 1.14, written by Peter Selinger 2001-2017
</metadata>
<g transform="translate(0.000000,700.000000) scale(0.100000,-0.100000)"
fill="#000000" stroke="none">
<path d="M2111 6659 c-200 -51 -364 -218 -412 -419 -10 -41 -14 -180 -15 -540
-1 -267 -2 -488 -3 -492 -1 -4 -9 -7 -18 -6 -55 1 -447 -63 -508 -84 -174 -58
-319 -164 -429 -313 -44 -60 -65 -96 -117 -206 -6 -14 -27 -81 -35 -114 -1 -5
-7 -30 -13 -55 -7 -30 -10 -400 -11 -1101 0 -874 2 -1068 14 -1130 58 -301
266 -557 546 -672 120 -49 216 -68 355 -71 68 -1 70 -2 69 -26 -2 -69 -16
-218 -29 -320 -2 -19 -7 -89 -11 -155 -7 -140 7 -219 59 -324 60 -123 214
-252 342 -286 17 -5 37 -10 45 -13 8 -3 704 -6 1545 -8 1433 -2 1534 -1 1595
16 215 58 366 213 416 426 15 66 15 164 0 314 -3 25 -7 74 -10 110 -3 36 -8
88 -11 115 -2 28 -7 73 -9 100 l-5 50 85 2 c253 6 460 92 633 262 111 110 188
238 238 398 l28 88 3 1065 c2 771 0 1085 -8 1139 -46 290 -225 536 -486 665
-97 48 -192 74 -329 90 -22 3 -74 10 -115 16 -41 6 -97 13 -125 16 -27 3 -54
10 -59 15 -6 5 -10 211 -11 496 -1 508 -3 528 -46 631 -67 157 -232 291 -401
326 -55 12 -300 14 -1375 14 -1247 0 -1311 -1 -1382 -19z m2685 -447 c16 -7
38 -26 48 -43 16 -28 18 -66 18 -457 0 -235 -1 -435 -1 -444 -1 -11 -8 -16
-21 -13 -11 2 -59 7 -108 10 -48 4 -105 9 -127 10 -39 4 -191 14 -305 20 -313
19 -997 25 -1340 12 -227 -9 -444 -21 -560 -32 -25 -2 -85 -6 -135 -10 -49 -3
-98 -8 -107 -11 -21 -6 -19 -58 -20 490 0 364 1 396 18 425 10 17 32 36 50 43
47 19 2545 19 2590 0z m-315 -2043 c91 -28 152 -114 153 -215 0 -131 -95 -227
-225 -226 -132 1 -231 102 -225 231 3 71 28 122 79 167 62 52 137 67 218 43z
m936 -13 c141 -66 171 -261 56 -367 -45 -42 -92 -61 -152 -62 -207 -2 -308
242 -160 385 74 72 162 87 256 44z m-1312 -1350 c28 -3 100 -7 160 -10 61 -4
130 -8 155 -11 25 -2 81 -7 125 -10 94 -6 182 -14 210 -20 11 -2 32 -4 47 -4
28 -1 68 -32 85 -66 6 -11 13 -57 17 -102 3 -45 10 -126 16 -180 5 -54 12
-127 15 -163 9 -110 16 -183 20 -225 3 -22 7 -71 10 -110 3 -38 7 -90 10 -115
2 -25 7 -72 10 -105 4 -57 21 -234 29 -320 3 -22 7 -71 11 -110 3 -38 8 -90
10 -115 10 -102 18 -217 18 -252 0 -44 -25 -86 -62 -101 -21 -9 -396 -12
-1498 -12 -1402 0 -1471 1 -1497 18 -15 10 -34 33 -41 50 -13 32 -13 46 0 182
4 39 8 88 10 110 3 35 6 72 20 230 2 17 6 57 9 90 3 33 8 89 11 125 7 79 13
150 20 210 3 25 7 79 10 120 3 41 7 86 10 100 2 14 6 66 10 115 4 50 9 101 10
115 2 14 6 59 10 100 3 41 8 94 10 117 3 23 7 77 10 119 11 157 29 170 250
189 39 4 89 8 112 10 38 4 118 10 268 20 28 2 124 7 215 11 91 3 166 8 168 9
5 4 942 -4 997 -9z"/>
</g>
</svg>
